<?xml version="1.0" encoding="utf-8"?>
<!-- Generator: Adobe Illustrator 17.0.0, SVG Export Plug-In . SVG Version: 6.00 Build 0)  -->
<!DOCTYPE svg PUBLIC "-//W3C//DTD SVG 1.1//EN" "http://www.w3.org/Graphics/SVG/1.1/DTD/svg11.dtd">
<svg version="1.1" id="Layer_1" xmlns="http://www.w3.org/2000/svg" xmlns:xlink="http://www.w3.org/1999/xlink" x="0px" y="0px"
	 width="200px" height="50px" viewBox="0 0 200 50" enable-background="new 0 0 200 50" xml:space="preserve">
<path fill="#414042" d="M32.568,30.411h0.078L36.96,5.917h8.47l-7.921,38.062H29.3l-5.647-22.874h-0.078l-5.62,22.874H9.747
	L1.8,5.917h8.496l4.313,24.52h0.078l5.934-24.52h5.986L32.568,30.411z"/>
<path fill="#414042" d="M109.963,12.713h-12.13v31.265h-8.862V12.713H76.894V5.917h33.068V12.713z"/>
<path fill="#414042" d="M145.698,43.978h-8.81V28.659h-14.09v15.319h-8.862V5.917h8.862v15.946h14.09V5.917h8.81V43.978z"/>
<path fill="#414042" d="M161.095,43.978h-8.81V5.917h8.81V43.978z"/>
<path fill="#414042" d="M199.418,43.978h-8.81l-14.012-24.39l-0.078,0.026v24.364h-8.862V5.917h8.862l14.012,24.39l0.078-0.026
	V5.917h8.81V43.978z"/>
<path fill="#414042" d="M61.485,25.021L51.444,35.062h5.636v8.916h0.005c-0.001,0.035-0.005,0.07-0.005,0.105
	c0,2.433,1.972,4.405,4.405,4.405c2.433,0,4.405-1.972,4.405-4.405c0-0.036-0.004-0.07-0.005-0.105h0.005v-8.916h5.636
	L61.485,25.021z"/>
<path fill="#414042" d="M65.89,14.98V5.917c0-2.433-1.972-4.405-4.405-4.405c-2.433,0-4.405,1.972-4.405,4.405v9.063h-5.636
	l10.041,10.041L71.526,14.98H65.89z"/>
</svg>
